<svg width="1000" height="400" viewBox="0 0 1000 400" fill="none" xmlns="http://www.w3.org/2000/svg">
<path d="M133 264.291V46.504H162.299V264.291H133Z" fill="url(#paint0_linear_66_109)"/>
<path d="M261.555 46H157.703H133L151.879 76.3115L261.555 76.3115C269.285 75.9755 283.052 82.0425 284.745 104.729C286.762 131.75 270.965 135.224 261.555 137.408L188.959 137.408V164.404C210.469 164.236 255.102 164.001 261.555 164.404C269.621 164.909 291.871 177.075 287.334 206.82C283.541 231.686 270.125 234.301 261.555 234.974L148.628 234.974V264.291H261.555C282.728 264.291 315.261 246.783 319.067 206.82C322.091 175.059 297.684 157.414 284.745 151.869C293.315 147.836 312.91 136.229 312.91 100.94C312.91 64.6419 279.704 46 261.555 46Z" fill="url(#paint1_linear_66_109)"/>
<path d="M366.415 47.0082V264.291L397.214 264.291V84.3143L483.375 208.332L569.611 84.3143V264.291L600.334 264.291V47.0082H559.191L483.375 159.195L407.633 47.0082H366.415Z" fill="url(#paint2_linear_66_109)"/>
<path d="M726.378 47.0082L625.037 264.291L659.598 264.291L741.534 87.6782L830.724 264.291L866.569 264.291L757.163 47.0082H726.378Z" fill="url(#paint3_linear_66_109)"/>
<path d="M788.896 212.365H697.487L709.328 186.664H776.108L788.896 212.365Z" fill="url(#paint4_linear_66_109)"/>
<line x1="133" y1="330.953" x2="194.196" y2="330.953" stroke="url(#paint5_linear_66_109)" stroke-width="2"/>
<line x1="797.256" y1="330.953" x2="858.452" y2="330.953" stroke="url(#paint6_linear_66_109)" stroke-width="2"/>
<path d="M219.171 332.761C219.171 334.775 218.835 336.624 218.164 338.309C217.492 339.994 216.549 341.444 215.333 342.66C214.117 343.876 212.654 344.82 210.944 345.491C209.234 346.162 207.334 346.498 205.244 346.498H194.775V319.024H205.244C207.334 319.024 209.234 319.366 210.944 320.05C212.654 320.721 214.117 321.665 215.333 322.881C216.549 324.084 217.492 325.528 218.164 327.213C218.835 328.898 219.171 330.747 219.171 332.761ZM213.927 332.761C213.927 331.254 213.724 329.905 213.319 328.714C212.926 327.511 212.35 326.497 211.59 325.674C210.842 324.838 209.93 324.198 208.854 323.755C207.79 323.312 206.586 323.09 205.244 323.09H199.905V342.432H205.244C206.586 342.432 207.79 342.21 208.854 341.767C209.93 341.324 210.842 340.69 211.59 339.867C212.35 339.031 212.926 338.018 213.319 336.827C213.724 335.624 213.927 334.268 213.927 332.761ZM236.413 323.09V330.709H246.027V334.642H236.413V342.413H248.611V346.498H231.283V319.024H248.611V323.09H236.413ZM285.136 332.761C285.136 334.775 284.801 336.624 284.129 338.309C283.458 339.994 282.514 341.444 281.298 342.66C280.082 343.876 278.619 344.82 276.909 345.491C275.199 346.162 273.299 346.498 271.209 346.498H260.74V319.024H271.209C273.299 319.024 275.199 319.366 276.909 320.05C278.619 320.721 280.082 321.665 281.298 322.881C282.514 324.084 283.458 325.528 284.129 327.213C284.801 328.898 285.136 330.747 285.136 332.761ZM279.892 332.761C279.892 331.254 279.69 329.905 279.284 328.714C278.892 327.511 278.315 326.497 277.555 325.674C276.808 324.838 275.896 324.198 274.819 323.755C273.755 323.312 272.552 323.09 271.209 323.09H265.87V342.432H271.209C272.552 342.432 273.755 342.21 274.819 341.767C275.896 341.324 276.808 340.69 277.555 339.867C278.315 339.031 278.892 338.018 279.284 336.827C279.69 335.624 279.892 334.268 279.892 332.761ZM302.379 346.498H297.249V319.024H302.379V346.498ZM334.997 340.019C335.275 340.019 335.522 340.127 335.738 340.342L337.752 342.527C336.637 343.908 335.263 344.965 333.629 345.7C332.007 346.435 330.057 346.802 327.777 346.802C325.737 346.802 323.901 346.454 322.267 345.757C320.645 345.06 319.258 344.091 318.106 342.85C316.953 341.609 316.066 340.127 315.446 338.404C314.838 336.681 314.534 334.8 314.534 332.761C314.534 330.696 314.863 328.809 315.522 327.099C316.18 325.376 317.105 323.894 318.296 322.653C319.499 321.412 320.93 320.449 322.59 319.765C324.249 319.068 326.086 318.72 328.1 318.72C330.101 318.72 331.874 319.049 333.42 319.708C334.978 320.367 336.301 321.228 337.391 322.292L335.681 324.667C335.579 324.819 335.446 324.952 335.282 325.066C335.13 325.18 334.914 325.237 334.636 325.237C334.446 325.237 334.249 325.186 334.047 325.085C333.844 324.971 333.622 324.838 333.382 324.686C333.141 324.521 332.862 324.344 332.546 324.154C332.229 323.964 331.862 323.793 331.444 323.641C331.026 323.476 330.538 323.343 329.981 323.242C329.436 323.128 328.803 323.071 328.081 323.071C326.852 323.071 325.725 323.293 324.699 323.736C323.685 324.167 322.811 324.8 322.077 325.636C321.342 326.459 320.772 327.473 320.367 328.676C319.961 329.867 319.759 331.228 319.759 332.761C319.759 334.306 319.974 335.681 320.405 336.884C320.848 338.087 321.443 339.101 322.191 339.924C322.938 340.747 323.818 341.381 324.832 341.824C325.845 342.255 326.934 342.47 328.1 342.47C328.796 342.47 329.423 342.432 329.981 342.356C330.551 342.28 331.07 342.16 331.539 341.995C332.02 341.83 332.47 341.621 332.888 341.368C333.318 341.102 333.743 340.779 334.161 340.399C334.287 340.285 334.42 340.196 334.56 340.133C334.699 340.057 334.845 340.019 334.997 340.019ZM363.369 336.124L360.025 326.985C359.86 326.58 359.689 326.098 359.512 325.541C359.334 324.984 359.157 324.382 358.98 323.736C358.815 324.382 358.644 324.99 358.467 325.56C358.289 326.117 358.118 326.605 357.954 327.023L354.629 336.124H363.369ZM372.394 346.498H368.442C367.998 346.498 367.637 346.39 367.359 346.175C367.08 345.947 366.871 345.668 366.732 345.339L364.68 339.734H353.299L351.247 345.339C351.145 345.63 350.949 345.896 350.658 346.137C350.366 346.378 350.005 346.498 349.575 346.498H345.585L356.396 319.024H361.602L372.394 346.498ZM399.356 323.223H391.072V346.498H385.961V323.223H377.677V319.024H399.356V323.223ZM415.681 323.09V330.709H425.295V334.642H415.681V342.413H427.879V346.498H410.551V319.024H427.879V323.09H415.681ZM464.404 332.761C464.404 334.775 464.069 336.624 463.397 338.309C462.726 339.994 461.782 341.444 460.566 342.66C459.35 343.876 457.887 344.82 456.177 345.491C454.467 346.162 452.567 346.498 450.477 346.498H440.008V319.024H450.477C452.567 319.024 454.467 319.366 456.177 320.05C457.887 320.721 459.35 321.665 460.566 322.881C461.782 324.084 462.726 325.528 463.397 327.213C464.069 328.898 464.404 330.747 464.404 332.761ZM459.16 332.761C459.16 331.254 458.958 329.905 458.552 328.714C458.16 327.511 457.583 326.497 456.823 325.674C456.076 324.838 455.164 324.198 454.087 323.755C453.023 323.312 451.82 323.09 450.477 323.09H445.138V342.432H450.477C451.82 342.432 453.023 342.21 454.087 341.767C455.164 341.324 456.076 340.69 456.823 339.867C457.583 339.031 458.16 338.018 458.552 336.827C458.958 335.624 459.16 334.268 459.16 332.761ZM511.396 323.223H503.112V346.498H498.001V323.223H489.717V319.024H511.396V323.223ZM547.865 332.761C547.865 334.775 547.529 336.643 546.858 338.366C546.199 340.076 545.262 341.558 544.046 342.812C542.83 344.066 541.367 345.048 539.657 345.757C537.947 346.454 536.047 346.802 533.957 346.802C531.879 346.802 529.986 346.454 528.276 345.757C526.566 345.048 525.096 344.066 523.868 342.812C522.652 341.558 521.708 340.076 521.037 338.366C520.365 336.643 520.03 334.775 520.03 332.761C520.03 330.747 520.365 328.885 521.037 327.175C521.708 325.452 522.652 323.964 523.868 322.71C525.096 321.456 526.566 320.481 528.276 319.784C529.986 319.075 531.879 318.72 533.957 318.72C535.35 318.72 536.661 318.885 537.89 319.214C539.118 319.531 540.246 319.987 541.272 320.582C542.298 321.165 543.216 321.88 544.027 322.729C544.85 323.565 545.547 324.502 546.117 325.541C546.687 326.58 547.117 327.707 547.409 328.923C547.713 330.139 547.865 331.418 547.865 332.761ZM542.64 332.761C542.64 331.254 542.437 329.905 542.032 328.714C541.626 327.511 541.05 326.491 540.303 325.655C539.555 324.819 538.643 324.179 537.567 323.736C536.503 323.293 535.299 323.071 533.957 323.071C532.614 323.071 531.404 323.293 530.328 323.736C529.264 324.179 528.352 324.819 527.592 325.655C526.844 326.491 526.268 327.511 525.863 328.714C525.457 329.905 525.255 331.254 525.255 332.761C525.255 334.268 525.457 335.624 525.863 336.827C526.268 338.018 526.844 339.031 527.592 339.867C528.352 340.69 529.264 341.324 530.328 341.767C531.404 342.21 532.614 342.432 533.957 342.432C535.299 342.432 536.503 342.21 537.567 341.767C538.643 341.324 539.555 340.69 540.303 339.867C541.05 339.031 541.626 338.018 542.032 336.827C542.437 335.624 542.64 334.268 542.64 332.761ZM601.189 332.761C601.189 334.775 600.854 336.624 600.182 338.309C599.511 339.994 598.567 341.444 597.351 342.66C596.135 343.876 594.672 344.82 592.962 345.491C591.252 346.162 589.352 346.498 587.262 346.498H576.793V319.024H587.262C589.352 319.024 591.252 319.366 592.962 320.05C594.672 320.721 596.135 321.665 597.351 322.881C598.567 324.084 599.511 325.528 600.182 327.213C600.854 328.898 601.189 330.747 601.189 332.761ZM595.945 332.761C595.945 331.254 595.743 329.905 595.337 328.714C594.945 327.511 594.368 326.497 593.608 325.674C592.861 324.838 591.949 324.198 590.872 323.755C589.808 323.312 588.605 323.09 587.262 323.09H581.923V342.432H587.262C588.605 342.432 589.808 342.21 590.872 341.767C591.949 341.324 592.861 340.69 593.608 339.867C594.368 339.031 594.945 338.018 595.337 336.827C595.743 335.624 595.945 334.268 595.945 332.761ZM636.463 319.024V346.498H631.333V334.49H618.432V346.498H613.302V319.024H618.432V330.842H631.333V319.024H636.463ZM676.382 332.761C676.382 334.775 676.046 336.643 675.375 338.366C674.716 340.076 673.779 341.558 672.563 342.812C671.347 344.066 669.884 345.048 668.174 345.757C666.464 346.454 664.564 346.802 662.474 346.802C660.397 346.802 658.503 346.454 656.793 345.757C655.083 345.048 653.614 344.066 652.385 342.812C651.169 341.558 650.225 340.076 649.554 338.366C648.883 336.643 648.547 334.775 648.547 332.761C648.547 330.747 648.883 328.885 649.554 327.175C650.225 325.452 651.169 323.964 652.385 322.71C653.614 321.456 655.083 320.481 656.793 319.784C658.503 319.075 660.397 318.72 662.474 318.72C663.867 318.72 665.178 318.885 666.407 319.214C667.636 319.531 668.763 319.987 669.789 320.582C670.815 321.165 671.733 321.88 672.544 322.729C673.367 323.565 674.064 324.502 674.634 325.541C675.204 326.58 675.635 327.707 675.926 328.923C676.23 330.139 676.382 331.418 676.382 332.761ZM671.157 332.761C671.157 331.254 670.954 329.905 670.549 328.714C670.144 327.511 669.567 326.491 668.82 325.655C668.073 324.819 667.161 324.179 666.084 323.736C665.02 323.293 663.817 323.071 662.474 323.071C661.131 323.071 659.922 323.293 658.845 323.736C657.781 324.179 656.869 324.819 656.109 325.655C655.362 326.491 654.785 327.511 654.38 328.714C653.975 329.905 653.772 331.254 653.772 332.761C653.772 334.268 653.975 335.624 654.38 336.827C654.785 338.018 655.362 339.031 656.109 339.867C656.869 340.69 657.781 341.324 658.845 341.767C659.922 342.21 661.131 342.432 662.474 342.432C663.817 342.432 665.02 342.21 666.084 341.767C667.161 341.324 668.073 340.69 668.82 339.867C669.567 339.031 670.144 338.018 670.549 336.827C670.954 335.624 671.157 334.268 671.157 332.761ZM704.563 342.28V346.498H688.47V319.024H693.581V342.28H704.563ZM720.943 323.09V330.709H730.557V334.642H720.943V342.413H733.141V346.498H715.813V319.024H733.141V323.09H720.943ZM753.573 332.096C754.536 332.096 755.372 331.976 756.081 331.735C756.803 331.494 757.392 331.165 757.848 330.747C758.317 330.316 758.665 329.81 758.893 329.227C759.121 328.644 759.235 328.005 759.235 327.308C759.235 325.915 758.773 324.844 757.848 324.097C756.936 323.35 755.536 322.976 753.649 322.976H750.381V332.096H753.573ZM766.721 346.498H762.104C761.23 346.498 760.597 346.156 760.204 345.472L754.428 336.675C754.213 336.346 753.972 336.111 753.706 335.972C753.453 335.833 753.073 335.763 752.566 335.763H750.381V346.498H745.27V319.024H753.649C755.511 319.024 757.107 319.22 758.437 319.613C759.78 319.993 760.875 320.531 761.724 321.228C762.585 321.925 763.219 322.761 763.624 323.736C764.029 324.699 764.232 325.763 764.232 326.928C764.232 327.853 764.093 328.727 763.814 329.55C763.548 330.373 763.155 331.121 762.636 331.792C762.129 332.463 761.496 333.052 760.736 333.559C759.989 334.066 759.134 334.465 758.171 334.756C758.5 334.946 758.804 335.174 759.083 335.44C759.362 335.693 759.615 335.997 759.843 336.352L766.721 346.498ZM791.804 336.124L788.46 326.985C788.295 326.58 788.124 326.098 787.947 325.541C787.77 324.984 787.592 324.382 787.415 323.736C787.25 324.382 787.079 324.99 786.902 325.56C786.725 326.117 786.554 326.605 786.389 327.023L783.064 336.124H791.804ZM800.829 346.498H796.877C796.434 346.498 796.073 346.39 795.794 346.175C795.515 345.947 795.306 345.668 795.167 345.339L793.115 339.734H781.734L779.682 345.339C779.581 345.63 779.384 345.896 779.093 346.137C778.802 346.378 778.441 346.498 778.01 346.498H774.02L784.831 319.024H790.037L800.829 346.498Z" fill="url(#paint7_linear_66_109)"/>
<defs>
<linearGradient id="paint0_linear_66_109" x1="144.847" y1="46.504" x2="144.847" y2="264.291" gradientUnits="userSpaceOnUse">
<stop stop-color="#DDBC69"/>
<stop offset="1" stop-color="#B58435"/>
</linearGradient>
<linearGradient id="paint1_linear_66_109" x1="225.144" y1="46" x2="225.144" y2="264.291" gradientUnits="userSpaceOnUse">
<stop stop-color="#DDBC69"/>
<stop offset="1" stop-color="#B58435"/>
</linearGradient>
<linearGradient id="paint2_linear_66_109" x1="612.434" y1="47.0082" x2="612.434" y2="264.291" gradientUnits="userSpaceOnUse">
<stop stop-color="#DDBC69"/>
<stop offset="1" stop-color="#B58435"/>
</linearGradient>
<linearGradient id="paint3_linear_66_109" x1="612.434" y1="47.0082" x2="612.434" y2="264.291" gradientUnits="userSpaceOnUse">
<stop stop-color="#DDBC69"/>
<stop offset="1" stop-color="#B58435"/>
</linearGradient>
<linearGradient id="paint4_linear_66_109" x1="612.434" y1="47.0082" x2="612.434" y2="264.291" gradientUnits="userSpaceOnUse">
<stop stop-color="#DDBC69"/>
<stop offset="1" stop-color="#B58435"/>
</linearGradient>
<linearGradient id="paint5_linear_66_109" x1="133" y1="332.453" x2="194.196" y2="332.453" gradientUnits="userSpaceOnUse">
<stop stop-color="#DDBC69"/>
<stop offset="1" stop-color="#B58435"/>
</linearGradient>
<linearGradient id="paint6_linear_66_109" x1="797.256" y1="332.453" x2="858.452" y2="332.453" gradientUnits="userSpaceOnUse">
<stop stop-color="#DDBC69"/>
<stop offset="1" stop-color="#B58435"/>
</linearGradient>
<linearGradient id="paint7_linear_66_109" x1="496.165" y1="308.498" x2="496.165" y2="354.371" gradientUnits="userSpaceOnUse">
<stop stop-color="#DDBC69"/>
<stop offset="1" stop-color="#B58435"/>
</linearGradient>
</defs>
</svg>
