<svg xmlns="http://www.w3.org/2000/svg" width="800" height="600" viewBox="0 0 800 600"><title>airport connectivity illustration</title><rect width="800" height="600" rx="30" fill="#f8f5ed"/><circle cx="400" cy="290" r="215" fill="#f0e9d8"/><circle cx="620" cy="120" r="33" fill="#ddbc69" opacity=".3"/><g stroke-linecap="round" stroke-linejoin="round"><path d="M170 390h460v55H170z" fill="#ede5d3" stroke="#ddbc69" stroke-width="4"/><path d="M220 390v-65h360v65m-330-25h300m-270-40v65m70-65v65m70-65v65m70-65v65" fill="none" stroke="#ddbc69" stroke-width="4"/><path d="M560 325v-92h38v92m-47-92h55v-28h-55z" fill="#f5efdf" stroke="#ddbc69" stroke-width="4"/><path d="m215 220 110-20 62-80 20 4-28 75 100 13 40-27 16 5-25 43 12 39-15 7-37-26-106 5 28 68-19 3-57-69-98-11z" fill="#ddbc69"/><path d="M140 466h520" stroke="#79817b" stroke-width="3"/></g></svg>